<svg xmlns="http://www.w3.org/2000/svg" xmlns:xlink="http://www.w3.org/1999/xlink" version="1.1" x="0px" y="0px" viewBox="0 0 44.33 68.3625" enable-background="new 0 0 44.33 54.69" xml:space="preserve">
	<path d="M42.63,39.69c-1.42-1.38-1.46-3.66-0.08-5.09c1.04-1.07,1.6-2.49,1.58-3.98c-0.02-1.49-0.63-2.89-1.7-3.93  c-0.69-0.67-1.08-1.57-1.09-2.53s0.35-1.87,1.02-2.56c2.15-2.21,2.1-5.77-0.12-7.92c-0.69-0.67-1.08-1.57-1.09-2.53  s0.35-1.87,1.02-2.56c2.15-2.21,2.1-5.77-0.12-7.92l-0.3-0.29L29.72,0.58c-0.58,0.01-1.1,0.33-1.38,0.83  c-0.28,0.5-0.26,1.12,0.04,1.62c0.85,1.4,0.65,3.2-0.49,4.38c-2.15,2.21-2.09,5.77,0.12,7.92c1.42,1.38,1.46,3.66,0.08,5.09  c-1.04,1.07-1.6,2.49-1.58,3.98c0.02,1.49,0.63,2.89,1.7,3.93c1.42,1.38,1.46,3.66,0.08,5.09c-0.33,0.34-0.59,0.72-0.82,1.12  c-0.94-0.96-1.29-2.37-0.81-3.7c0.51-1.41,0.43-2.93-0.2-4.28c-0.64-1.35-1.76-2.38-3.17-2.88c-0.91-0.33-1.63-0.98-2.04-1.85  c-0.41-0.87-0.46-1.85-0.13-2.75c1.04-2.9-0.47-6.12-3.37-7.16c-1.87-0.67-2.84-2.74-2.17-4.6c0.51-1.41,0.43-2.93-0.2-4.28  c-0.64-1.35-1.76-2.38-3.17-2.88L11.8,0L0.92,5.12C0.4,5.37,0.05,5.88,0.01,6.45c-0.05,0.57,0.22,1.13,0.7,1.46  c1.35,0.92,1.91,2.64,1.36,4.19c-0.51,1.41-0.43,2.93,0.2,4.28c0.64,1.35,1.76,2.38,3.17,2.88c0.91,0.33,1.63,0.98,2.04,1.85  c0.41,0.87,0.46,1.85,0.13,2.75c-1.04,2.91,0.47,6.12,3.37,7.16c1.87,0.67,2.84,2.74,2.17,4.6c-0.51,1.41-0.43,2.93,0.2,4.28  c0.64,1.35,1.76,2.38,3.17,2.88c1.87,0.67,2.84,2.74,2.17,4.6c-0.51,1.41-0.43,2.93,0.2,4.28c0.64,1.35,1.76,2.38,3.17,2.88  l0.39,0.14l4.85-2.29c0.29,0.71,0.71,1.37,1.28,1.92l0.3,0.29l12-0.18c0.59-0.01,1.11-0.32,1.39-0.83c0.28-0.51,0.27-1.13-0.03-1.63  c-0.84-1.4-0.64-3.19,0.5-4.36C44.9,45.39,44.84,41.84,42.63,39.69z M11.87,2.17c1.63,0.79,2.43,2.71,1.81,4.45  c-1.04,2.9,0.47,6.12,3.37,7.16c1.87,0.67,2.84,2.74,2.17,4.6c-0.51,1.41-0.43,2.93,0.2,4.28c0.64,1.35,1.76,2.38,3.17,2.88  c1.87,0.67,2.84,2.74,2.17,4.6c-0.84,2.35,0.01,4.98,2,6.42c-0.01,0.09-0.01,0.18-0.02,0.26c-0.02,0.29-0.03,0.57-0.01,0.86  c0.01,0.16,0.03,0.31,0.05,0.47c0.03,0.17,0.05,0.33,0.09,0.49c0.05,0.23,0.12,0.45,0.21,0.66c0.04,0.1,0.08,0.2,0.12,0.3  c0.12,0.27,0.26,0.53,0.42,0.77c0.04,0.06,0.08,0.11,0.12,0.17c0.19,0.27,0.4,0.53,0.65,0.77c0.69,0.67,1.08,1.57,1.09,2.53  s-0.35,1.87-1.02,2.56c-0.99,1.02-1.54,2.36-1.56,3.78c-0.64-0.8-1.4-1.24-1.95-1.56c-0.14-0.08-0.32-0.19-0.44-0.26  c0.04-0.18,0.17-0.59,0.61-1.37c0.04-0.07,0.08-0.15,0.11-0.23c1.14-3.16-0.51-6.66-3.68-7.8c-1.61-0.58-2.45-2.36-1.87-3.96  c1.14-3.16-0.51-6.66-3.68-7.8c-1.61-0.58-2.45-2.36-1.87-3.96c1.14-3.16-0.51-6.66-3.67-7.8c-1.61-0.58-2.45-2.36-1.87-3.96  c0.78-2.16-0.1-5.15-1.53-7.05L11.87,2.17z M22.38,52.51c-1.63-0.79-2.43-2.71-1.81-4.45c1.04-2.9-0.47-6.12-3.38-7.16  c-0.91-0.33-1.63-0.98-2.04-1.85s-0.46-1.85-0.13-2.75c1.04-2.9-0.47-6.12-3.38-7.16c-1.87-0.67-2.84-2.74-2.17-4.6  c0.51-1.41,0.43-2.93-0.2-4.28c-0.64-1.35-1.76-2.38-3.17-2.88c-0.91-0.33-1.63-0.98-2.04-1.85c-0.41-0.87-0.46-1.85-0.13-2.75  c0.79-2.19,0.13-4.62-1.59-6.11l1.9-0.9c1.11,0.97,1.96,3.49,1.53,4.7c-1.14,3.16,0.51,6.66,3.68,7.8c1.61,0.58,2.44,2.35,1.87,3.96  c-1.14,3.16,0.51,6.66,3.68,7.8c1.61,0.58,2.44,2.36,1.87,3.96c-1.14,3.16,0.51,6.66,3.68,7.8c1.57,0.57,2.41,2.28,1.9,3.86  c-1.73,3.15-0.85,4.51,1.02,5.59c0.26,0.15,0.48,0.28,0.69,0.44L22.38,52.51z M28.99,51.1l-0.04-0.26  c-0.04-0.27-0.05-0.55-0.03-0.81c0-0.02,0-0.03,0-0.05c0.02-0.24,0.07-0.47,0.14-0.7c0.01-0.04,0.02-0.08,0.03-0.12  c0.07-0.21,0.16-0.4,0.26-0.59c0.03-0.05,0.04-0.09,0.07-0.14c0.14-0.22,0.29-0.43,0.48-0.62c1.04-1.07,1.6-2.49,1.58-3.98  c-0.02-1.49-0.63-2.89-1.7-3.93c-0.15-0.15-0.28-0.31-0.41-0.48c-0.04-0.06-0.08-0.11-0.12-0.17c-0.08-0.12-0.14-0.25-0.2-0.38  c-0.06-0.14-0.12-0.27-0.16-0.42c-0.03-0.08-0.05-0.15-0.07-0.23c-0.03-0.13-0.06-0.26-0.08-0.4c0-0.03-0.01-0.05-0.01-0.08  c-0.05-0.46-0.02-0.93,0.11-1.39l0.1-0.36c0.17-0.43,0.42-0.84,0.77-1.2c2.15-2.22,2.09-5.77-0.12-7.92  c-0.69-0.67-1.08-1.57-1.09-2.53c-0.01-0.96,0.35-1.87,1.02-2.56c2.15-2.21,2.1-5.77-0.12-7.92c-1.42-1.38-1.46-3.66-0.08-5.09  c1.62-1.67,2.03-4.15,1.08-6.23l4.28-0.06c0.2,1.2,0.79,2.03,1.21,2.61c0.1,0.13,0.22,0.3,0.29,0.42c-0.11,0.15-0.39,0.47-1.12,1  c-0.07,0.05-0.13,0.11-0.19,0.17c-2.34,2.41-2.28,6.28,0.13,8.62c1.23,1.19,1.26,3.15,0.07,4.38c-2.34,2.41-2.28,6.28,0.13,8.62  c1.23,1.19,1.26,3.15,0.07,4.38c-2.34,2.41-2.28,6.28,0.13,8.62c1.23,1.19,1.26,3.15,0.07,4.38c-1.55,1.6-2.01,4.54-1.56,6.83  l-4.18,0.06C29.35,52.16,29.11,51.65,28.99,51.1z M41.31,46.22c-1.62,1.67-2.03,4.15-1.08,6.23l-3.27,0.05  c-0.49-1.39-0.2-3.82,0.65-4.7c2.34-2.41,2.28-6.28-0.13-8.62c-1.23-1.19-1.25-3.15-0.07-4.38c2.34-2.41,2.28-6.28-0.13-8.62  c-1.23-1.19-1.26-3.15-0.07-4.38c2.34-2.41,2.28-6.28-0.13-8.62c-1.2-1.16-1.25-3.07-0.14-4.3c2.88-2.15,2.63-3.76,1.38-5.51  c-0.23-0.31-0.42-0.59-0.55-0.9l3.14-0.05c1.16,1.39,1.1,3.47-0.19,4.8c-2.15,2.22-2.09,5.77,0.12,7.92  c1.42,1.38,1.46,3.66,0.08,5.09c-1.04,1.07-1.6,2.49-1.58,3.98c0.02,1.49,0.63,2.89,1.7,3.93c0.69,0.67,1.08,1.57,1.09,2.53  c0.01,0.96-0.35,1.87-1.02,2.56c-2.15,2.21-2.1,5.77,0.12,7.92C42.66,42.51,42.69,44.79,41.31,46.22z"/>
	<!-- <text x="0" y="69.69" fill="#000000" font-size="5px" font-weight="bold" font-family="'Helvetica Neue', Helvetica, Arial-Unicode, Arial, Sans-serif">Created by Oliviu Stoian</text> -->
	<!-- <text x="0" y="74.69" fill="#000000" font-size="5px" font-weight="bold" font-family="'Helvetica Neue', Helvetica, Arial-Unicode, Arial, Sans-serif">from the Noun Project</text> -->
</svg>