<svg xmlns="http://www.w3.org/2000/svg" xmlns:xlink="http://www.w3.org/1999/xlink" version="1.1" x="0px" y="0px" viewBox="0 0 90 112.5" enable-background="new 0 0 90 90" xml:space="preserve"><g><path d="M86,4.5H2.6C2.3,4.4,2,4.4,1.7,4.6C1.4,4.7,1.2,5.1,1.1,5.4c0,0,0,0,0,0.1c0,0,0,0,0,0.1c0,0.1,0,0.1,0,0.2v44.4   c0,0.5,0.3,0.9,0.7,1.1L32.8,69c0.4,0.2,0.9,0.2,1.3,0c0.4-0.2,0.6-0.7,0.6-1.1c0-4.7,2.6-6.9,6-4.9c4,2.2,7.3,8.6,7.3,14   c0,0.5,0.3,0.9,0.7,1.1l11.7,6.7c0.2,0.1,0.4,0.2,0.6,0.2c0.2,0,0.4,0,0.5-0.1c23.8-10.8,25.6-29.2,25.6-34.6V5.8   C87.3,5.1,86.7,4.5,86,4.5z M84.6,8.2c-0.1,0.9-0.2,2-0.5,3.2c0,0.1,0,0.2-0.1,0.3c-0.1,0.5-0.2,1-0.4,1.6c0,0.2-0.1,0.4-0.2,0.6   c-0.1,0.5-0.3,0.9-0.4,1.4c-0.1,0.2-0.2,0.5-0.3,0.7c-0.2,0.4-0.3,0.9-0.5,1.3c-0.1,0.3-0.2,0.6-0.4,0.8c-0.2,0.4-0.4,0.9-0.6,1.3   c-0.2,0.3-0.3,0.6-0.5,0.9c-0.2,0.4-0.5,0.9-0.8,1.3c-0.2,0.3-0.4,0.6-0.6,0.9c-0.3,0.4-0.6,0.9-0.9,1.3c-0.2,0.3-0.5,0.6-0.7,1   c-0.3,0.4-0.7,0.9-1.1,1.3c-0.3,0.3-0.5,0.6-0.8,1c-0.4,0.5-0.9,0.9-1.3,1.4c-0.3,0.3-0.6,0.6-0.9,0.9c-0.5,0.5-1.1,1-1.7,1.4   c-0.3,0.3-0.6,0.5-0.9,0.8c-0.8,0.6-1.6,1.2-2.4,1.8c-0.2,0.1-0.3,0.3-0.5,0.4c-1,0.7-2.2,1.4-3.4,2c-0.4,0.2-0.8,0.4-1.1,0.6   c-0.8,0.4-1.5,0.8-2.4,1.2L7.4,7.1h77.3c0,0.3,0,0.5-0.1,0.8C84.6,8,84.6,8.1,84.6,8.2z M42.1,60.6c-1.3-0.7-2.6-1.1-3.8-1.1   c-3.1,0-5.4,2.4-6,6.1L3.6,49.3V8l55.1,31.3l1.1,0.6v41.4l-9.1-5.2C50.4,70,46.7,63.3,42.1,60.6z M84.7,50.2   c0,4.8-1.6,21.1-22.3,31.3V40c0.4-0.2,0.8-0.4,1.3-0.7c1-0.5,1.9-1,2.8-1.5c0.5-0.3,1-0.6,1.6-0.9c0.8-0.5,1.6-1,2.3-1.5   c0.5-0.3,0.9-0.7,1.4-1c0.7-0.5,1.4-1,2-1.6c0.4-0.3,0.8-0.7,1.2-1c0.6-0.5,1.2-1.1,1.7-1.6c0.3-0.3,0.7-0.7,1-1   c0.5-0.6,1-1.2,1.5-1.8c0.3-0.3,0.5-0.6,0.8-0.9c0.5-0.7,1-1.3,1.4-2c0.2-0.2,0.3-0.5,0.5-0.7c0.6-0.9,1.1-1.8,1.6-2.7   c0,0,0-0.1,0.1-0.1c0.4-0.8,0.8-1.7,1.2-2.5c0,0,0-0.1,0.1-0.1V50.2z"/><path d="M13.6,20.3c-1.8-1.1-4.3-0.3-4.3,2.9c0,2.2,1.3,4.6,3,5.6c0.5,0.3,1.1,0.4,1.6,0.4c1.3,0,2.7-1.1,2.7-3.4   C16.6,23.7,15.3,21.3,13.6,20.3z M13.6,26.6c-0.8-0.5-1.7-2-1.7-3.4c0-0.5,0.1-0.8,0.2-0.8c0,0,0,0,0,0l0.3,0.1   c0.8,0.5,1.7,2,1.7,3.4C14,26.5,13.9,26.7,13.6,26.6z"/><path d="M48.6,38.5c-2.5-1.4-5.7-0.4-5.7,4c0,3.2,1.9,6.9,4.4,8.3c0.7,0.4,1.4,0.6,2.1,0.6c1.8,0,3.6-1.4,3.6-4.6   C53,43.6,51,39.9,48.6,38.5z M49.4,48.8c-0.2,0-0.5-0.1-0.8-0.3c-1.7-1-3.1-3.7-3.1-6c0-1,0.3-2,1-2c0.2,0,0.5,0.1,0.8,0.3   c1.7,1,3.1,3.7,3.1,6C50.4,47.8,50.1,48.8,49.4,48.8z"/><path d="M24.9,39.2c-0.9-0.5-1.9-0.8-2.8-0.8c-2.3,0-4.6,1.9-4.6,6.1c0,4.5,2.7,9.6,6.1,11.5c0.9,0.5,1.9,0.8,2.8,0.8   c2.3,0,4.6-1.9,4.6-6.1C31,46.2,28.3,41.1,24.9,39.2z M26.4,54.2c-0.4,0-1-0.2-1.5-0.5C22.3,52.3,20,48,20,44.5   c0-1.6,0.5-3.5,2-3.5c0.4,0,1,0.2,1.5,0.5c2.6,1.5,4.8,5.7,4.8,9.3C28.4,52.3,27.9,54.2,26.4,54.2z"/></g><text x="0" y="105" fill="#000000" font-size="5px" font-weight="bold" font-family="'Helvetica Neue', Helvetica, Arial-Unicode, Arial, Sans-serif">Created by Evgeny Tarasenko</text><text x="0" y="110" fill="#000000" font-size="5px" font-weight="bold" font-family="'Helvetica Neue', Helvetica, Arial-Unicode, Arial, Sans-serif">from the Noun Project</text></svg>