<?xml version="1.0" encoding="utf-8"?><!DOCTYPE svg PUBLIC "-//W3C//DTD SVG 1.1//EN" "http://www.w3.org/Graphics/SVG/1.1/DTD/svg11.dtd"><svg version="1.1" xmlns="http://www.w3.org/2000/svg" xmlns:xlink="http://www.w3.org/1999/xlink" x="0px" y="0px" viewBox="0 0 100 113.885" enable-background="new 0 0 100 91.108" xml:space="preserve"><path fill="#010101" d="M61.311,45.287c6.097,1.39,12.242-2.749,13.721-9.24c1.477-6.492-2.119-13.975-8.365-14.271
	c-3.455-0.163-9.126,1.865-12.467,7.879C50.545,36.232,55.212,43.898,61.311,45.287z"/><path fill="#010101" d="M46.445,62.415c4.628-4.208,4.748-11.61,0.269-16.538c-4.479-4.926-12.807-5.952-17.5-1.813
	c-3.655,3.217-4.35,9.96-0.854,15.886C32.79,67.455,41.819,66.623,46.445,62.415z"/><path fill="#010101" d="M9.838,72.654c0.253,0.239,0.566,0.529,0.685,0.655c0.917,1.124,0.933,1.158,1.958,3.262l0.293,0.604
	c3.303,6.761,10.523,11.711,19.317,13.239c2.648,0.46,5.399,0.694,8.182,0.694c6.274,0,18.07-1.271,26.557-9.773
	c4.463-4.473,5.463-8.208,6.349-11.505c0.53-1.982,0.991-3.696,2.22-5.82c1.258-2.168,3.975-3.43,7.124-4.891
	c2.15-0.993,4.374-2.025,6.388-3.496c3.284-2.4,5.929-5.491,7.856-9.19c1.796-3.44,2.889-7.337,3.162-11.265
	c0.554-7.986-2.206-15.551-7.574-20.755c-3.668-3.554-11.2-9.515-20.465-9.515c-1.303,0-2.604,0.122-3.869,0.362
	c-0.123,0.024-0.231,0.042-0.325,0.061c-0.099-0.076-0.202-0.158-0.315-0.242c-0.384-0.286-0.774-0.6-1.188-0.933
	C64.028,2.395,61.058,0,56.098,0c-1.755,0-3.609,0.29-5.673,0.891C47.13,1.85,44.455,3.265,42.25,5.21
	c-1.878,1.66-3.449,3.72-4.926,6.47c-1.907-1.143-4.394-2.182-8.547-2.182c-0.313,0-0.636,0.004-0.96,0.016
	c-6.044,0.224-11.409,2.904-15.104,7.55c-4.025,5.064-5.567,11.941-4.23,18.873c0.062,0.332,0.132,0.639,0.194,0.911
	c0.029,0.131,0.062,0.284,0.094,0.426c-2.832,2.195-5.887,6.379-6.858,8.462c-2.7,5.797-2.539,11.908,0.467,17.678
	C4.677,67.824,8.034,70.967,9.838,72.654z M5.921,47.603c0.711-1.522,3.377-5.188,5.648-6.901c2.472-1.867,1.636-3.618,1.254-5.602
	c-2.151-11.149,4.7-20.782,15.155-21.165c0.276-0.01,0.542-0.015,0.798-0.015c3.787,0,5.562,1.064,7.051,2.044
	c0.648,0.428,1.335,0.712,2.029,0.712c1.089,0,2.2-0.698,3.218-2.636c2.33-4.434,5.071-7.295,10.584-8.9
	c1.729-0.501,3.183-0.716,4.437-0.716c4.149,0,6.121,2.329,8.649,4.206c1.018,0.756,1.274,1.196,2.334,1.196
	c0.425,0,0.979-0.071,1.766-0.22c1.021-0.195,2.037-0.284,3.044-0.284c6.731,0,13.026,4.04,17.389,8.268
	c9.504,9.21,8.052,26.41-2.975,34.464c-4.606,3.367-11.67,4.46-14.729,9.742c-3.776,6.521-1.795,10.328-7.872,16.417
	c-6.27,6.278-15.342,8.477-23.431,8.477c-2.62,0-5.139-0.23-7.424-0.629c-6.88-1.195-13.262-5.007-16.104-10.826
	c-1.404-2.878-1.455-3.069-2.841-4.771C12.52,68.759,0.198,59.891,5.921,47.603z"/><text x="0" y="106.108" fill="#000000" font-size="5px" font-weight="bold" font-family="'Helvetica Neue', Helvetica, Arial-Unicode, Arial, Sans-serif">Created by Jacob Halton</text><text x="0" y="111.108" fill="#000000" font-size="5px" font-weight="bold" font-family="'Helvetica Neue', Helvetica, Arial-Unicode, Arial, Sans-serif">from the Noun Project</text></svg>