<svg xmlns="http://www.w3.org/2000/svg" xmlns:xlink="http://www.w3.org/1999/xlink" version="1.1" x="0px" y="0px" viewBox="0 0 100 125" enable-background="new 0 0 100 100" xml:space="preserve">
	<path d="M8.554,45.792h1.432v-4.354H8.554c-1.202,0-1.032,0.975-1.032,2.177C7.522,44.817,7.352,45.792,8.554,45.792z"/>
	<path d="M67.564,28.677h-5.961c-1.202,0-2.177,0.975-2.177,2.178v1.594l-7.854,0.195c0.272-6.152,1.49-10.781,3.57-13.588h0.579  c1.203,0,2.178-0.975,2.178-2.178V15.82c0-1.203-0.975-2.178-2.178-2.178H30.351c-1.203,0-2.178,0.975-2.178,2.178v1.059  c0,1.203,0.975,2.178,2.178,2.178h0.542c2.383,3.228,3.244,7.664,3.532,11.937l8.151,1.501c0.248,0.045,0.457,0.207,0.464,0.357  c0,0.002-0.001,0.003-0.001,0.005l-17.021,0.422c-1.182,0.03-2.124,0.996-2.124,2.177v0.919l-2.503-0.178  c-0.604-0.044-1.197,0.167-1.639,0.579c-0.442,0.412-0.694,0.989-0.694,1.594v3.068h-2.85v-2.859c0-1.203-0.975-2.178-2.178-2.178  s-2.178,0.975-2.178,2.178v14.414c0,4.099,1.735,7.288,5.019,9.227c1.243,0.734,1.727,2.32,1.727,5.656v7.222  c0,1.202,0.975,2.178,2.178,2.178s2.178-0.976,2.178-2.178v-7.222c0-2.312,0-7.123-3.869-9.406  c-1.936-1.143-2.877-2.934-2.877-5.477v-7.2h2.85v3.068c0,0.604,0.251,1.182,0.694,1.594c0.404,0.376,0.936,0.584,1.484,0.584  c0.051,0,0.103-0.002,0.154-0.006l2.503-0.178v1.073c0,1.182,0.942,2.147,2.124,2.177l11.772,0.293l-0.784,21.456  c0,1.646-1.334,2.98-2.98,2.98h-1.359v-1.19c0-0.95-0.769-1.719-1.719-1.719s-1.719,0.769-1.719,1.719v1.19h-1.247  c-1.772,0-3.209,1.437-3.209,3.209s1.437,3.21,3.209,3.21h29.51c1.772,0,3.21-1.438,3.21-3.21s-1.438-3.209-3.21-3.209h-1.548v-1.19  c0-0.95-0.77-1.719-1.719-1.719c-0.95,0-1.72,0.769-1.72,1.719v1.19h-1.975c-1.646,0-2.98-1.335-2.98-2.98l-0.775-21.234  l12.651,0.314V56.3c0,1.202,0.975,2.177,2.177,2.177h5.961c1.202,0,2.178-0.975,2.178-2.177V30.854  C69.742,29.652,68.767,28.677,67.564,28.677z"/>
	<path d="M15.432,66.958c-0.823,0-1.49,0.667-1.49,1.49v0.08c-0.048,0.759-0.776,1.283-1.55,1.287  c-2.976-0.17-3.265-0.908-5.47-0.908c-1.748,0-2.98,1.334-2.98,2.98c0,1.646,1.232,2.979,2.98,2.979c2.205,0,2.494-0.739,5.47-0.908  c0.774,0.003,1.501,0.528,1.55,1.287v0.309c0,0.823,0.667,1.49,1.49,1.49c0.823,0,1.49-0.667,1.49-1.49v-7.106  C16.922,67.625,16.255,66.958,15.432,66.958z"/>
	<path d="M71.892,33.923v2.984c11.79,0.637,21.186,10.427,21.186,22.372c0,0.822,0.667,1.489,1.49,1.489s1.49-0.667,1.49-1.489  C96.058,45.69,85.325,34.563,71.892,33.923z"/>
	<path d="M71.892,38.716v2.987c9.15,0.631,16.402,8.271,16.402,17.576c0,0.822,0.667,1.489,1.49,1.489  c0.822,0,1.489-0.667,1.489-1.489C91.273,48.329,82.686,39.351,71.892,38.716z"/>
	<path d="M71.892,43.5v2.988c6.516,0.617,11.629,6.117,11.629,12.791c0,0.822,0.668,1.489,1.49,1.489c0.823,0,1.49-0.667,1.49-1.489  C86.501,50.962,80.052,44.127,71.892,43.5z"/>
	<path d="M71.892,48.302v3.004c3.871,0.59,6.846,3.94,6.846,7.974c0,0.822,0.667,1.489,1.489,1.489c0.823,0,1.49-0.667,1.49-1.489  C81.717,53.602,77.41,48.912,71.892,48.302z"/>
	<!-- <text x="0" y="115" fill="#000000" font-size="5px" font-weight="bold" font-family="'Helvetica Neue', Helvetica, Arial-Unicode, Arial, Sans-serif">Created by Cédric Villain</text> -->
	<!-- <text x="0" y="120" fill="#000000" font-size="5px" font-weight="bold" font-family="'Helvetica Neue', Helvetica, Arial-Unicode, Arial, Sans-serif">from the Noun Project</text> -->
</svg>