<svg xmlns="http://www.w3.org/2000/svg" xmlns:xlink="http://www.w3.org/1999/xlink" version="1.1" x="0px" y="0px" viewBox="0 0 100 125" enable-background="new 0 0 100 100" xml:space="preserve">
	<path d="M95.162,11.085c0,0-1.594-6.139-6.781-3.824c0,0,1.572-3.117,0.427-6.159c-3.126,0.889-4.697,4.005-4.697,4.005  c-1.223-5.546-7.106-3.177-7.106-3.177s2.587,2.893,2.802,6.755c-4.812-0.521-10.095,1.533-12.846,8.805c0,0-5.443,29.945-49,52.629  c-6.677,3.34-9.338,8.183-8.978,12.725c-3.566-0.151-6.241-2.139-6.241-2.139s-1.953,6.071,3.7,6.9c0,0-3.014,1.8-3.68,5.001  c3.134,0.928,6.147-0.871,6.147-0.871c-1.949,5.368,4.324,6.524,4.324,6.524s-0.566-3.433,0.969-6.673  c0.741,0.549,1.55,1.05,2.426,1.49c0,0,8.669,4.264,20.374-2.877C77.85,68.307,90.553,32.009,90.553,32.009  c1.854-6.76,2.296-14.302-2.181-19.145C91.556,10.819,95.162,11.085,95.162,11.085z M45.569,61.714  c-0.248,0.315-6.271,7.802-22.758,15.114c-0.264,0.117-0.539,0.173-0.81,0.173c-0.767,0-1.499-0.444-1.829-1.19  c-0.448-1.01,0.007-2.191,1.017-2.639c15.591-6.915,21.184-13.864,21.239-13.934c0.653-0.829,1.84-1.009,2.708-0.41  c0.455,0.313,0.759,0.803,0.841,1.349C46.06,60.724,45.912,61.28,45.569,61.714z"/>
	<!-- <text x="0" y="115" fill="#000000" font-size="5px" font-weight="bold" font-family="'Helvetica Neue', Helvetica, Arial-Unicode, Arial, Sans-serif">Created by Mario Bieh</text> -->
	<!-- <text x="0" y="120" fill="#000000" font-size="5px" font-weight="bold" font-family="'Helvetica Neue', Helvetica, Arial-Unicode, Arial, Sans-serif">from the Noun Project</text> -->
</svg>