<svg xmlns="http://www.w3.org/2000/svg" xmlns:xlink="http://www.w3.org/1999/xlink" version="1.1" x="0px" y="0px" viewBox="0 0 50 62.5" enable-background="new 0 0 50 50" xml:space="preserve">
	<path d="M8.437,10.362c1.248-0.992,2.457-2.036,3.752-2.96c3.654-2.603,6.714-2.405,9.889,0.664  c1.573,1.524,2.651,3.358,3.164,5.537c0.586,2.495,0.081,4.555-1.938,6.229c-2.234,1.849-4.231,3.935-3.061,7.148  c1.248,3.42,3.521,5.958,7.366,6.37c3.364,0.36,6.688,0.137,9.699-1.746c1.146-0.715,2.355-1.352,3.591-1.905  c3.297-1.482,5.721-0.438,6.948,2.865c0.228,0.612,0.253,1.133-0.273,1.491c-2.408,1.631,0.146,1.85,0.661,3.21  s-0.142,1.548-1.011,1.633c-3.049,0.309-6.014-0.425-9.014-0.722c-0.948-0.094-1.844-0.202-2.677,0.558  c-5.292,4.831-11.448,6.648-18.513,5.174c-2.584-1.601-5.169-3.201-7.753-4.802c-5.883-5.738-8.543-12.399-5.886-20.581  C5.067,15.804,6.752,13.083,8.437,10.362z M6.531,15.397c0.012,0.007,0.023,0.015,0.037,0.023c-0.336,0.543-0.698,1.072-1.005,1.633  c-2.476,4.518-2.147,5.659,2.32,8.057c1.346,0.723,2.777,1.236,4.269,1.541c4.104,0.839,5.359,0.006,6.392-3.969  c0.319-1.229,0.147-1.848-1.145-2.35c-2.972-1.156-5.396-3.11-7.139-5.804c-1.61-2.489-1.569-2.514-3.222,0.051  C6.863,14.852,6.699,15.125,6.531,15.397z M16.606,18.194c1.112,0.335,2.431,2.108,4.187,0.963c1.69-1.103,3.051-2.673,2.798-4.946  C23.24,11.037,21.6,8.684,18.7,7.336c-2.579-1.2-4.586,0.262-6.588,1.63c-1.554,1.063-1.708,2.348-0.82,3.92  C12.5,15.015,14.111,16.733,16.606,18.194z M18.798,30.795c0.666-0.79,0.304-1.591-0.084-2.408c-0.285-0.6-0.702-0.832-1.347-0.639  c-4.496,1.35-8.492,0.062-12.267-2.347c-1.147-0.732-1.604-0.376-1.501,0.915c0.261,3.297,1.578,6.146,3.674,8.667  c0.317,0.38,0.688,0.622,1.196,0.715C10.946,36.141,17.422,33.104,18.798,30.795z M9.269,37.133c2.306,2.39,4.651,3.835,7.336,4.756  c0.787,0.269,1.607,0.469,2.211-0.284c1.789-2.232,2.929-4.754,3.178-7.63c0.089-1.022-0.582-1.658-1.347-2.092  c-0.844-0.478-1.299,0.352-1.796,0.809C16.258,35.074,13.329,36.762,9.269,37.133z M27.469,35.464  c-2.526-1.54-3.878-1.03-4.584,1.516c-0.17,0.612-0.494,1.193-0.594,1.815c-0.226,1.407-2.304,2.853-1.399,3.702  c1.102,1.037,3.168,0.021,4.813-0.172c0.236-0.028,0.463-0.124,0.699-0.168c1.361-0.258,2.078-1.082,2.191-2.454  C28.729,38.072,28.64,36.512,27.469,35.464z M30.156,40.569c1.638-0.496,2.884-1.446,4.058-2.487  c1.109-0.985,0.952-2.075-0.282-2.671c-1.239-0.597-2.758-0.398-3.926,0.133c-0.969,0.44,0.148,1.511,0.088,2.328  C30.032,38.726,30.126,39.591,30.156,40.569z"/>
	<!-- <text x="0" y="65" fill="#000000" font-size="5px" font-weight="bold" font-family="'Helvetica Neue', Helvetica, Arial-Unicode, Arial, Sans-serif">Created by Luke Patrick</text> -->
	<!-- <text x="0" y="70" fill="#000000" font-size="5px" font-weight="bold" font-family="'Helvetica Neue', Helvetica, Arial-Unicode, Arial, Sans-serif">from the Noun Project</text> -->
</svg>