<svg xmlns="http://www.w3.org/2000/svg" xmlns:xlink="http://www.w3.org/1999/xlink" version="1.1" x="0px" y="0px" viewBox="0 0 128 160" enable-background="new 0 0 128 128" xml:space="preserve">
	<g>
		<path fill="#000000" d="M30.3,56c15.4,4.3,26.5,18.1,41.5,23.5c10,3.7,21,3.3,31.6,3c4-0.1,8.2-0.3,11.8-2c5.5-2.5,9.1-8.1,10.6-14   c1.5-5.9,1.2-12,1-18c-0.2-3.3-0.3-6.8-2-9.7c-1.6-2.8-4.3-4.7-7-6.5c-4.6-3-9.6-5.3-14.8-7.2c-10.2-3.7-42.1-4.1-56.6-3.6   C32,22,17.1,25.4,5.7,34.4C3.4,36.3,1,38.7,1,41.7c0,2.3,1.3,4.4,3,6C10.7,54.2,21.3,53.6,30.3,56z M24.6,36.7   c1.8-0.1,32.4-1.4,55.8,9.6c3.2-0.1,17.8-0.8,27.4-7.5c1.1-0.8,2.7-0.5,3.5,0.6c0.8,1.1,0.5,2.7-0.6,3.5   c-6.9,4.9-15.8,6.9-22.3,7.8c6.6,4.4,12.1,10.1,15.4,17.6c0.6,1.3,0,2.8-1.3,3.4c-0.3,0.1-0.7,0.2-1,0.2c-1,0-1.9-0.6-2.3-1.5   C85.3,39.1,25.5,41.8,24.9,41.8c-1.4,0.1-2.6-1-2.7-2.4C22.1,38,23.2,36.8,24.6,36.7z"/>
		<path fill="#000000" d="M117.4,85.2c-4.6,2.1-9.7,2.3-13.8,2.4c-3.4,0.1-6.5,0.2-9.6,0.2c-6.7,0-15.5-0.4-23.9-3.5   c-7.7-2.8-14.2-7.5-20.6-12c-6.8-4.8-13.2-9.4-20.6-11.4c-2.5-0.7-5.1-1.1-7.9-1.6C14.3,58.3,6.8,57,1,51.9v13.7c0,2.3,1.3,4.4,3,6   c6.7,6.4,17.3,5.8,26.2,8.3c15.4,4.3,26.5,18.1,41.5,23.5c10,3.7,21,3.3,31.6,3c4-0.1,8.2-0.3,11.8-2c5.5-2.5,9.1-8.1,10.6-14   c0.7-2.6,1-8,1.1-13.8C124.5,80.5,121.2,83.4,117.4,85.2z"/>
	</g>
	<!-- <text x="0" y="143" fill="#000000" font-size="5px" font-weight="bold" font-family="'Helvetica Neue', Helvetica, Arial-Unicode, Arial, Sans-serif">Created by Vectors Market</text> -->
	<!-- <text x="0" y="148" fill="#000000" font-size="5px" font-weight="bold" font-family="'Helvetica Neue', Helvetica, Arial-Unicode, Arial, Sans-serif">from the Noun Project</text> -->
</svg>