<svg xmlns="http://www.w3.org/2000/svg" xmlns:xlink="http://www.w3.org/1999/xlink" version="1.1" x="0px" y="0px" viewBox="0 0 100 125" enable-background="new 0 0 100 100" xml:space="preserve">
	<path fill="#000000" d="M94.632,17.39c-2.297-2.298-5.438-3.506-8.667-3.348c0.161-3.192-1.016-6.335-3.354-8.674  C80.438,3.196,77.551,2,74.479,2c-3.071,0-5.959,1.196-8.131,3.369c-4.365,4.366-4.48,11.397-0.347,15.903L54.928,32.345  c-0.188-3.114-0.965-5.979-2.462-9.345c0.196,4.675-0.804,8.163-2.616,12.042c-2.036-0.356-3.496-0.364-3.666-0.364  c-7.157,0-31.331,12.664-36.167,17.415C5.07,56.954,2,63.721,2,71.205C2,86.004,13.996,98,28.794,98  c7.485,0,14.253-3.07,19.112-8.016c4.752-4.836,17.181-29.016,17.416-36.168c0.05-1.516-0.037-2.897-0.217-4.183  C69.322,47.447,72.951,46.199,78,46.3c-3.368-1.411-6.225-2.13-9.309-2.263L78.73,33.999c2.125,1.953,4.865,3.022,7.77,3.022  c0.001,0,0.001,0,0.001,0c3.071,0,5.96-1.196,8.132-3.369C99.116,29.168,99.115,21.873,94.632,17.39z M91.805,30.824  c-1.416,1.417-3.301,2.197-5.304,2.197c-2.004,0-3.887-0.78-5.306-2.199c-0.248-0.247-0.49-0.537-0.764-0.913l-1.377-1.892  L63.262,43.81c-0.281-0.528-0.578-1.036-0.904-1.505c1.75-2.481,3.242-5.842,2.148-8.441c-1.275,2.119-3.248,4.062-5.562,4.906  c-0.961-0.722-1.971-1.312-2.983-1.8l16.024-16.022l-1.894-1.376c-0.376-0.273-0.667-0.517-0.916-0.766  c-2.924-2.924-2.924-7.683,0-10.607C70.593,6.78,72.477,6,74.479,6s3.888,0.78,5.305,2.197c2.021,2.021,2.71,4.969,1.798,7.692  l-1.274,3.807l3.807-1.276c0.775-0.26,1.584-0.392,2.402-0.392c1.998,0,3.877,0.777,5.289,2.189  C94.729,23.142,94.729,27.9,91.805,30.824z"/>
	<!-- <text x="0" y="115" fill="#000000" font-size="5px" font-weight="bold" font-family="'Helvetica Neue', Helvetica, Arial-Unicode, Arial, Sans-serif">Created by Mario Bieh</text> -->
	<!-- <text x="0" y="120" fill="#000000" font-size="5px" font-weight="bold" font-family="'Helvetica Neue', Helvetica, Arial-Unicode, Arial, Sans-serif">from the Noun Project</text> -->
</svg>